{"title":"Dredd.720p.HDRip.H264-Canrel","uid":7939044,"size":2281561089,"categoryP":"video","categoryS":"hd___movies","magnet":"?xt=urn:btih:f8973b851987f088a778ec27689f79027edf29b2&amp;dn=Dredd.720p.HDRip.H264-Canrel&amp;tr=udp%3A%2F%2Ftracker.openbittorrent.com%3A80&amp;tr=udp%3A%2F%2Fopen.demonii.com%3A1337&amp;tr=udp%3A%2F%2Ftracker.coppersurfer.tk%3A6969&amp;tr=udp%3A%2F%2Fexodus.desync.com%3A6969","seeders":0,"leechers":1,"uploader":"haloReD","files":-1,"time":1355934897,"description":" General\nComplete name : C:UsersAdministratorDesktopDredd.720p.HDRip.H264-Canrel.avi\nFormat : MPEG-4\nFormat profile : Base Media / Version 2\nCodec ID : mp42\nFile size : 2.12 GiB\nDuration : 1h 35mn\nOverall bit rate mode : Variable\nOverall bit rate : 3 185 Kbps\nEncoded date : UTC 2012-12-14 00:57:41\nTagged date : UTC 2012-12-14 00:57:41\nÂ©TIM : 00;00;00;00\nÂ©TSC : 30000\nÂ©TSZ : 1001\n\nVideo\nID : 1\nFormat : AVC\nFormat/Info : Advanced Video Codec\nFormat profile : &lt;a class=&quot;__cf_email__&quot; href=&quot;/cdn-cgi/l/email-protection&quot; data-cfemail=&quot;3e7c5f4d5b5257505b7e720d100f&quot;&gt;[email&amp;#160;protected]&lt;/a&gt;&lt;script cf-hash='f9e31' type=&quot;text/javascript&quot;&gt;\n/* &lt;![CDATA[ */!function(){try{var t=&quot;currentScript&quot;in document?document.currentScript:function(){for(var t=document.getElementsByTagName(&quot;script&quot;),e=t.length;e--;)if(t[e].getAttribute(&quot;cf-hash&quot;))return t[e]}();if(t&amp;&amp;t.previousSibling){var e,r,n,i,c=t.previousSibling,a=c.getAttribute(&quot;data-cfemail&quot;);if(a){for(e=&quot;&quot;,r=parseInt(a.substr(0,2),16),n=2;a.length-n;n+=2)i=parseInt(a.substr(n,2),16)^r,e+=String.fromCharCode(i);e=document.createTextNode(e),c.parentNode.replaceChild(e,c)}}}catch(u){}}();/* ]]&gt; */&lt;/script&gt;\nFormat settings, CABAC : No\nFormat settings, ReFrames : 3 frames\nCodec ID : avc1\nCodec ID/Info : Advanced Video Coding\nDuration : 1h 35mn\nBit rate : 2 993 Kbps\nWidth : 1 280 pixels\nHeight : 720 pixels\nDisplay aspect ratio : 16:9\nFrame rate mode : Constant\nFrame rate : 29.970 fps\nStandard : NTSC\nColor space : YUV\nChroma subsampling : 4:2:0\nBit depth : 8 bits\nScan type : Progressive\nBits/(Pixel*Frame) : 0.108\nStream size : 2.00 GiB (94%)\nLanguage : English\nEncoded date : UTC 2012-12-14 00:57:41\nTagged date : UTC 2012-12-14 00:57:41\n\nAudio\nID : 2\nFormat : AAC\nFormat/Info : Advanced Audio Codec\nFormat profile : LC\nCodec ID : 40\nDuration : 1h 35mn\nSource duration : 1h 35mn\nBit rate mode : Variable\nBit rate : 192 Kbps\nMaximum bit rate : 292 Kbps\nChannel(s) : 2 channels\nChannel positions : Front: L R\nSampling rate : 44.1 KHz\nCompression mode : Lossy\nStream size : 130 MiB (6%)\nSource stream size : 130 MiB (6%)\nLanguage : English\nEncoded date : UTC 2012-12-14 00:57:41\nTagged date : UTC 2012-12-14 00:57:41\n\nScreen:\n &lt;a href=&quot;\nhttp://img560.imageshack.us/img560/7546/vlcsnap2012121914h31m52.png&quot; rel=&quot;nofollow&quot; target=&quot;_NEW&quot;&gt;\nhttp://img560.imageshack.us/img560/7546/vlcsnap2012121914h31m52.png&lt;/a&gt;","torrent":{"xt":"urn:btih:f8973b851987f088a778ec27689f79027edf29b2","amp;dn":"Dredd.720p.HDRip.H264-Canrel","amp;tr":["udp%3A%2F%2Ftracker.openbittorrent.com%3A80","udp%3A%2F%2Fopen.demonii.com%3A1337","udp%3A%2F%2Ftracker.coppersurfer.tk%3A6969","udp%3A%2F%2Fexodus.desync.com%3A6969"],"infoHash":"f8973b851987f088a778ec27689f79027edf29b2","infoHashBuffer":{"type":"Buffer","data":[248,151,59,133,25,135,240,136,167,120,236,39,104,159,121,2,126,223,41,178]},"announce":[],"urlList":[]}}